<svg width="197" height="50" viewBox="0 0 197 50" fill="none" xmlns="http://www.w3.org/2000/svg">
<path d="M37.9775 5.13424C37.8525 5.31861 36.9063 6.21506 36.6768 6.44772C35.8658 7.26283 35.0776 8.10124 34.3135 8.96041C33.2842 10.1184 32.304 11.3192 31.375 12.559C29.4489 15.1292 27.5732 18.0423 26.5889 21.1753C25.6382 21.8364 24.3607 21.8331 23.4131 21.1616C21.964 16.6039 18.3472 11.9126 15.4141 8.65182C14.692 7.85036 13.951 7.06615 13.1914 6.30026C12.9464 6.05588 12.6979 5.81509 12.4463 5.5776C12.3129 5.4506 12.1012 5.27007 12 5.12447V5.11276C12.267 4.8426 13.024 3.95224 13.2568 3.77389C13.5931 4.05186 13.898 4.36039 14.209 4.66647C14.773 5.216 15.3207 5.78204 15.8525 6.36276C17.5725 8.21591 19.2082 10.1156 20.6816 12.1733C21.0289 12.6582 21.3486 13.1492 21.6826 13.6421C21.7527 13.7763 21.8337 13.8705 21.9268 13.9887C21.8767 13.8579 21.8206 13.7314 21.7647 13.603C21.6621 13.2686 21.4844 12.8099 21.3604 12.4751C21.0902 11.7402 20.8081 11.0095 20.5147 10.2837C19.8248 8.55567 19.0772 6.85079 18.2744 5.17233C17.8564 4.27359 17.4143 3.38599 16.9482 2.51119C17.1567 2.38377 18.4396 1.65693 18.5879 1.68795C18.7707 1.82108 19.2154 2.7932 19.3398 3.04244C20.708 5.79764 21.9326 8.62187 23.0098 11.5034C23.39 12.5267 23.8859 13.8489 24.1592 14.8979C24.1941 13.3967 24.1594 11.7417 24.1592 10.227L24.1582 0.846154L25.9932 0.846154C26.0282 3.52991 25.9974 6.27833 25.9971 8.96627V12.1596C25.9969 12.8949 26.0078 13.6515 25.9707 14.3842C26.1107 14.0565 26.2827 13.4747 26.4043 13.1176C26.6519 12.3993 26.91 11.6844 27.1797 10.9741C28.174 8.375 29.2881 5.82303 30.5176 3.32662C30.6584 3.0422 31.2372 1.82105 31.4063 1.64303C31.6738 1.76696 32.8316 2.36375 33.0312 2.51803C31.8186 4.86711 30.7084 7.26789 29.7041 9.71334C29.1134 11.1636 28.6263 12.5469 28.0703 13.9975C28.2581 13.7439 28.4241 13.4657 28.5996 13.2016C28.8865 12.7767 29.1799 12.356 29.4795 11.9399C31.2002 9.59837 33.0897 7.38496 35.1328 5.31881C35.6019 4.84783 36.2412 4.1722 36.7373 3.76998C37.1643 4.17258 37.5639 4.68416 37.9912 5.11471L37.9775 5.13424ZM37.5186 45.7905C37.3021 46.0264 36.9233 46.3775 36.7471 46.6255C34.7524 44.7098 32.8883 42.6621 31.168 40.4965C30.7576 39.9828 30.3622 39.5086 29.9697 38.979C29.53 38.3838 29.1018 37.7791 28.6865 37.1665C28.4988 36.8869 28.3288 36.5987 28.1387 36.3198C28.5796 37.696 29.2826 39.4216 29.8369 40.7505C30.7937 43.0443 31.8768 45.5336 33.0518 47.7221C32.5757 48.025 31.9051 48.3016 31.4004 48.6186C31.2286 48.3472 31.038 47.9462 30.8906 47.6508C30.5822 47.0345 30.283 46.4129 29.9932 45.7876C28.4359 42.5204 27.0928 39.1551 25.9727 35.7133C26.0308 36.8936 25.9969 38.2902 25.9971 39.4897V48.061C25.997 48.4329 25.9863 48.8762 26.0068 49.2417C25.4732 49.2365 24.6783 49.2145 24.1582 49.2505C24.1949 45.7399 24.1591 42.1597 24.1592 38.643C24.1543 37.5031 24.1551 36.3628 24.1621 35.2231C23.7495 36.7784 22.9838 38.7656 22.3818 40.269C21.5927 42.2803 20.7302 44.2623 19.7959 46.2104C19.5336 46.7556 19.2892 47.3088 19.0068 47.8462C18.8776 48.0922 18.7558 48.3677 18.6045 48.6001C18.3164 48.4592 17.1848 47.8962 16.9961 47.7348C17.0095 47.5548 18.2294 45.1345 18.4326 44.6938C19.7087 41.9558 20.8527 39.1576 21.8613 36.31C21.6794 36.5649 21.4805 36.9051 21.2969 37.1772C20.8196 37.8901 20.3221 38.5891 19.8057 39.2739C19.4946 39.6842 19.1487 40.0999 18.8252 40.5034C17.8244 41.7523 16.7829 42.9676 15.7012 44.1469C14.8936 45.0132 14.0984 45.7941 13.2744 46.6313C12.9281 46.2395 12.3027 45.65 12 45.2661V45.2378C12.5092 44.6903 13.0575 44.1758 13.5811 43.6421C13.9727 43.2426 14.3502 42.8191 14.7266 42.4047C17.9922 38.8087 21.8694 33.8522 23.4121 28.9272C24.3644 28.2521 25.6513 28.2521 26.6035 28.9233C28.1013 33.6574 31.3518 37.9599 34.5537 41.6118C35.3181 42.4915 36.1122 43.3456 36.9336 44.1723C37.2597 44.5028 37.658 44.9191 38 45.2251V45.2602C37.85 45.4126 37.6688 45.6268 37.5186 45.7905Z" fill="white" fill-opacity="0.6" style="fill:white;fill-opacity:0.6;"/>
<path d="M21.242 18.9199C20.6806 18.4774 20.0082 18.2024 19.3181 18.1592C18.8059 18.1271 18.292 18.2267 17.8299 18.4688C17.7388 18.3975 17.6472 18.3294 17.5554 18.2646C16.8346 17.7562 16.2109 17.5381 15.6873 17.5381C14.6133 17.5382 13.809 18.1252 13.1716 19.5674C12.5116 21.0612 12.2312 23.1254 12.2312 25.1152C12.2312 27.11 12.5054 29.1735 13.1619 30.666C13.7933 32.1015 14.5954 32.6923 15.6873 32.6924C16.2122 32.6924 16.8363 32.4723 17.5574 31.9561C17.6783 31.8695 17.7973 31.7755 17.9168 31.6777C18.3553 31.8871 18.8363 31.9729 19.3162 31.9434C19.9918 31.9018 20.6498 31.6372 21.2049 31.2109C21.1155 31.3681 21.0208 31.5371 20.9168 31.7139C20.25 32.8471 19.2831 34.3635 18.0847 35.8848C16.8895 37.4019 15.4417 38.9522 13.8093 40.1299C12.1794 41.3059 10.304 42.1533 8.27321 42.1533C7.68974 42.1533 7.0989 41.9279 6.60036 41.625C6.08909 41.3143 5.59815 40.8765 5.21559 40.3506L6.70876 39.2646C6.9415 39.5846 7.24793 39.8586 7.55934 40.0479C7.88355 40.2448 8.14078 40.3076 8.27321 40.3076C9.78203 40.3076 11.2838 39.6757 12.7293 38.6328C13.1002 38.3652 13.4639 38.0731 13.8181 37.7627C13.3108 37.9153 12.791 38 12.2625 38H12.197C6.64627 37.9448 4.9236 30.8619 4.9236 25.1152C4.92363 19.3686 6.685 12.2867 12.197 12.2314L12.2625 12.2305C12.8057 12.2305 13.3403 12.3193 13.8621 12.4795C13.4888 12.1545 13.1052 11.8496 12.7136 11.5713C11.27 10.5451 9.77256 9.92285 8.27321 9.92285C7.97685 9.92285 7.84672 9.93034 7.68923 9.99609C7.52644 10.0641 7.24814 10.2373 6.82497 10.7451L5.40603 9.5625C5.94421 8.91668 6.45012 8.51251 6.97829 8.29199C7.51163 8.06939 7.97976 8.07715 8.27321 8.07715C10.2884 8.07715 12.156 8.90996 13.783 10.0664C15.4126 11.2248 16.8617 12.7505 18.0603 14.2432C19.2621 15.7398 20.2341 17.2317 20.905 18.3467C21.0277 18.5505 21.1395 18.7428 21.242 18.9199ZM15.7722 15.6934C15.5583 15.5123 15.3418 15.3418 15.1228 15.1846C14.0906 14.4433 13.1318 14.0773 12.2625 14.0771C10.4785 14.0772 9.15898 15.141 8.1863 17.2754C7.19798 19.4443 6.76932 22.3727 6.76931 25.1152C6.76931 27.8625 7.18926 30.7906 8.17263 32.958C9.13811 35.0859 10.4557 36.1533 12.2625 36.1533C13.1355 36.1532 14.0957 35.7822 15.1287 35.0293C15.3379 34.8768 15.5453 34.7127 15.7498 34.5381C15.7291 34.5384 15.708 34.5381 15.6873 34.5381C11.5159 34.5378 10.3845 29.3344 10.3845 25.1152C10.3846 20.8961 11.5453 15.6926 15.6873 15.6924C15.7155 15.6924 15.744 15.6927 15.7722 15.6934ZM45.0769 25.1738C45.0494 30.8957 43.2723 37.868 37.8035 37.9229H37.7381C37.195 37.9228 36.661 37.8339 36.1394 37.6738C36.5126 37.9987 36.8954 38.3038 37.2869 38.582C38.7306 39.6082 40.2279 40.2305 41.7273 40.2305C42.0236 40.2305 42.1538 40.2239 42.3113 40.1582C42.474 40.0902 42.7524 39.917 43.1756 39.4092L44.5935 40.5908C44.0554 41.2365 43.5504 41.6408 43.0222 41.8613C42.4888 42.084 42.0208 42.0771 41.7273 42.0771C39.712 42.0771 37.8446 41.2434 36.2175 40.0869C34.588 38.9286 33.1388 37.4038 31.9402 35.9111C30.7383 34.4143 29.7664 32.9217 29.0955 31.8066C28.9487 31.5627 28.8167 31.3359 28.699 31.1309C29.2672 31.5919 29.9542 31.8942 30.657 31.9697C31.1826 32.0262 31.7262 31.9527 32.2195 31.7217C32.2947 31.7795 32.3694 31.8363 32.4451 31.8896C33.1659 32.3981 33.7897 32.6152 34.3133 32.6152C35.3873 32.6151 36.1915 32.0283 36.8289 30.5859C37.4889 29.0921 37.7693 27.028 37.7693 25.0381C37.7693 23.0435 37.495 20.9806 36.8386 19.4883C36.2072 18.0527 35.4051 17.462 34.3133 17.4619C33.7883 17.4619 33.1642 17.681 32.4431 18.1973C32.3501 18.2639 32.258 18.3348 32.1658 18.4082C31.6871 18.2017 31.1652 18.1374 30.6609 18.1885C30.0082 18.2547 29.3651 18.5106 28.8152 18.9082C28.8991 18.7611 28.9874 18.6033 29.0838 18.4395C29.7506 17.3062 30.7174 15.7897 31.9158 14.2686C33.111 12.7514 34.5588 11.2012 36.1912 10.0234C37.8211 8.84754 39.6966 8 41.7273 8C42.3108 8.00002 42.9016 8.22542 43.4002 8.52832C43.9114 8.83897 44.4024 9.27685 44.7849 9.80274L43.2918 10.8887C43.0591 10.5688 42.7525 10.2956 42.4412 10.1064C42.1169 9.90943 41.8598 9.84573 41.7273 9.8457C40.2186 9.84571 38.7166 10.4778 37.2713 11.5205C36.9003 11.7881 36.5366 12.0802 36.1824 12.3906C36.6897 12.2381 37.2095 12.1534 37.7381 12.1533L37.8035 12.1543C43.3541 12.2095 45.0769 19.2914 45.0769 25.0381V25.1738ZM43.2312 25.0381C43.2312 22.2908 42.8113 19.3627 41.8279 17.1953C40.8624 15.0675 39.5448 14 37.7381 14C36.865 14.0001 35.9047 14.3712 34.8718 15.124C34.6626 15.2765 34.4552 15.4415 34.2508 15.6162C34.2714 15.6159 34.2926 15.6152 34.3133 15.6152C38.4844 15.6155 39.6159 20.819 39.616 25.0381L39.615 25.2373C39.5788 29.4193 38.3903 34.4616 34.3133 34.4619C34.285 34.4619 34.2564 34.4616 34.2283 34.4609C34.442 34.6419 34.6589 34.8116 34.8777 34.9688C35.9099 35.71 36.8687 36.077 37.7381 36.0771C39.522 36.0771 40.8416 35.0132 41.8142 32.8789C42.8026 30.71 43.2312 27.7807 43.2312 25.0381Z" fill="white" style="fill:white;fill-opacity:1;"/>
<path d="M34.8462 25.0448C34.8462 27.7692 34.1656 29.587 33.2931 30.8172C32.6314 31.7502 31.6135 32.0725 30.657 31.9697C29.7269 31.8698 28.8234 31.3749 28.1882 30.6368L27.1092 29.383C26.0121 28.1081 24.0411 28.0977 22.9305 29.3609L21.7553 30.6976C21.1178 31.4227 20.2325 31.887 19.3162 31.9434C18.3713 32.0015 17.4205 31.6169 16.803 30.7105C15.9424 29.4473 15.1538 27.5875 15.1538 25.0448C15.1539 22.4863 15.9522 20.6274 16.8205 19.3719C17.4386 18.4782 18.3819 18.1005 19.3181 18.1592C20.2261 18.2161 21.1029 18.6751 21.7373 19.3878L22.942 20.7411C24.0512 21.9872 26.0023 21.9769 27.0983 20.7191L28.1378 19.5262C28.7888 18.7791 29.7146 18.2843 30.6609 18.1885C31.6317 18.0902 32.6682 18.4181 33.3355 19.3687C34.1896 20.5856 34.8461 22.3691 34.8462 25.0448ZM33 25.0448C33 22.6867 32.4273 21.2884 31.8244 20.4294C31.6062 20.1186 31.2754 19.982 30.8475 20.0254C30.3952 20.0712 29.8911 20.3242 29.5296 20.739L28.4902 21.9319C26.6636 24.0282 23.4117 24.0455 21.563 21.9686L20.3584 20.6153C20.012 20.2261 19.574 20.0256 19.2029 20.0023C18.8601 19.9808 18.5599 20.1024 18.3389 20.422C17.6634 21.3986 17 22.8961 17 25.0448C17 27.1811 17.6558 28.6834 18.3287 29.671C18.5515 29.9981 18.8561 30.1224 19.2028 30.1011C19.5781 30.078 20.0208 29.8746 20.3688 29.4786L21.544 28.1419C23.395 26.0366 26.68 26.054 28.5086 28.1788L29.5875 29.4325C29.9395 29.8415 30.4242 30.088 30.8545 30.1342C31.2584 30.1776 31.5734 30.0506 31.7872 29.7492C32.4063 28.8762 33 27.4458 33 25.0448Z" fill="white" style="fill:white;fill-opacity:1;"/>
<path d="M25 48.1543C37.7875 48.1543 48.1543 37.7875 48.1543 25C48.1543 12.2125 37.7875 1.8457 25 1.8457C12.2125 1.8457 1.8457 12.2125 1.8457 25H0C6.03528e-07 11.1929 11.1929 -6.03528e-07 25 0C38.8071 6.03528e-07 50 11.1929 50 25C50 38.8071 38.8071 50 25 50C11.1929 50 -6.03528e-07 38.8071 0 25H1.8457C1.8457 37.7875 12.2125 48.1543 25 48.1543Z" fill="white" style="fill:white;fill-opacity:1;"/>
<path d="M188.763 32.2346C187.623 32.2346 186.631 31.9537 185.788 31.3918C184.954 30.8214 184.307 30.0083 183.847 28.9526C183.396 27.8969 183.17 26.6454 183.17 25.1981V25.1854C183.17 23.7295 183.4 22.478 183.86 21.4309C184.319 20.3752 184.966 19.5664 185.801 19.0045C186.635 18.4341 187.618 18.1489 188.751 18.1489C189.398 18.1489 189.989 18.2553 190.526 18.4681C191.071 18.6724 191.552 18.9704 191.969 19.362C192.386 19.7452 192.722 20.2091 192.978 20.754H193.054V13.5387H196.221V31.9665H193.054V29.6678H192.978C192.731 30.2041 192.399 30.6639 191.982 31.047C191.573 31.4216 191.096 31.7153 190.551 31.9282C190.015 32.1325 189.419 32.2346 188.763 32.2346ZM189.721 29.5656C190.377 29.5656 190.956 29.3868 191.458 29.0293C191.96 28.6717 192.352 28.1651 192.633 27.5096C192.914 26.854 193.054 26.0835 193.054 25.1981V25.1854C193.054 24.2999 192.91 23.5337 192.62 22.8867C192.339 22.2311 191.947 21.7246 191.445 21.367C190.951 21.0094 190.377 20.8306 189.721 20.8306C189.04 20.8306 188.448 21.0094 187.946 21.367C187.452 21.7161 187.069 22.2141 186.797 22.8611C186.533 23.5082 186.401 24.2829 186.401 25.1854V25.1981C186.401 26.0921 186.533 26.8668 186.797 27.5224C187.069 28.1779 187.452 28.6845 187.946 29.042C188.448 29.3911 189.04 29.5656 189.721 29.5656Z" fill="white" style="fill:white;fill-opacity:1;"/>
<path d="M176.107 32.2346C174.754 32.2346 173.587 31.9494 172.608 31.379C171.638 30.8086 170.893 29.9998 170.373 28.9526C169.854 27.9055 169.594 26.6667 169.594 25.2364V25.2237C169.594 23.8019 169.854 22.5632 170.373 21.5075C170.901 20.4433 171.638 19.6175 172.583 19.03C173.536 18.4426 174.66 18.1489 175.954 18.1489C177.24 18.1489 178.351 18.4341 179.287 19.0045C180.232 19.5664 180.956 20.3581 181.458 21.3798C181.969 22.4014 182.224 23.5933 182.224 24.9555V25.9771H171.165V23.8572H180.705L179.172 25.8367V24.6107C179.172 23.7253 179.036 22.9888 178.764 22.4014C178.491 21.814 178.117 21.3755 177.64 21.0861C177.163 20.7881 176.614 20.6391 175.992 20.6391C175.362 20.6391 174.801 20.7923 174.307 21.0988C173.821 21.3968 173.438 21.8438 173.157 22.4397C172.885 23.0357 172.749 23.7593 172.749 24.6107V25.8367C172.749 26.6625 172.885 27.3691 173.157 27.9565C173.438 28.5355 173.834 28.9824 174.345 29.2974C174.856 29.6039 175.465 29.7572 176.171 29.7572C176.699 29.7572 177.163 29.6763 177.563 29.5145C177.963 29.3443 178.291 29.1272 178.547 28.8632C178.81 28.5993 178.993 28.3141 179.096 28.0076L179.121 27.9182H182.084L182.058 28.0587C181.948 28.578 181.743 29.0889 181.445 29.5912C181.147 30.0849 180.747 30.5319 180.245 30.9321C179.743 31.3322 179.147 31.6515 178.457 31.8898C177.768 32.1197 176.984 32.2346 176.107 32.2346Z" fill="white" style="fill:white;fill-opacity:1;"/>
<path d="M164.792 31.9665V13.5387H167.972V31.9665H164.792Z" fill="white" style="fill:white;fill-opacity:1;"/>
<path d="M155.329 32.1963C154.435 32.1963 153.643 32.0261 152.954 31.6855C152.272 31.3365 151.74 30.8554 151.357 30.2425C150.983 29.621 150.795 28.9101 150.795 28.1098V28.0842C150.795 27.2755 150.995 26.5859 151.396 26.0154C151.804 25.4365 152.392 24.981 153.158 24.649C153.924 24.3085 154.852 24.1041 155.942 24.036L161.114 23.7168V25.8239L156.389 26.1176C155.606 26.1687 155.005 26.356 154.588 26.6795C154.171 27.003 153.962 27.433 153.962 27.9693V27.9821C153.962 28.5355 154.171 28.9739 154.588 29.2974C155.014 29.6124 155.576 29.7699 156.274 29.7699C156.887 29.7699 157.432 29.6465 157.909 29.3996C158.394 29.1527 158.777 28.8164 159.058 28.3907C159.339 27.9651 159.479 27.484 159.479 26.9477V22.8867C159.479 22.2056 159.262 21.6692 158.828 21.2776C158.402 20.8775 157.785 20.6774 156.976 20.6774C156.227 20.6774 155.627 20.8392 155.176 21.1627C154.724 21.4777 154.443 21.8863 154.333 22.3886L154.307 22.5036H151.37L151.383 22.3503C151.451 21.55 151.719 20.8349 152.187 20.2049C152.656 19.5664 153.303 19.0641 154.128 18.698C154.963 18.3319 155.95 18.1489 157.091 18.1489C158.224 18.1489 159.203 18.3362 160.028 18.7108C160.863 19.0854 161.506 19.6089 161.957 20.2815C162.416 20.9541 162.646 21.7459 162.646 22.6568V31.9665H159.479V29.8849H159.403C159.147 30.3531 158.815 30.7618 158.407 31.1108C157.998 31.4599 157.53 31.7281 157.002 31.9154C156.482 32.1027 155.925 32.1963 155.329 32.1963Z" fill="white" style="fill:white;fill-opacity:1;"/>
<path d="M143.988 32.2346C142.652 32.2346 141.494 31.9494 140.515 31.379C139.536 30.8086 138.778 29.9956 138.242 28.9399C137.714 27.8842 137.45 26.6327 137.45 25.1854V25.1726C137.45 23.7338 137.718 22.4908 138.254 21.4436C138.791 20.3879 139.544 19.5749 140.515 19.0045C141.494 18.4341 142.639 18.1489 143.95 18.1489C145.142 18.1489 146.172 18.3787 147.04 18.8385C147.909 19.2897 148.59 19.8899 149.084 20.6391C149.577 21.3883 149.858 22.2141 149.926 23.1166V23.2059H146.938L146.913 23.1038C146.785 22.4482 146.474 21.8906 145.98 21.4309C145.495 20.9626 144.831 20.7285 143.988 20.7285C143.324 20.7285 142.741 20.9115 142.239 21.2776C141.745 21.6352 141.362 22.146 141.089 22.8101C140.817 23.4741 140.681 24.2701 140.681 25.1981V25.2109C140.681 26.1474 140.817 26.9477 141.089 27.6117C141.37 28.2758 141.758 28.7866 142.251 29.1442C142.754 29.4933 143.337 29.6678 144.001 29.6678C144.81 29.6678 145.461 29.4507 145.955 29.0165C146.457 28.5738 146.781 27.9991 146.925 27.2925L146.951 27.1775H149.952L149.939 27.2669C149.854 28.2034 149.556 29.0463 149.045 29.7955C148.534 30.5447 147.849 31.1406 146.989 31.5833C146.129 32.0175 145.129 32.2346 143.988 32.2346Z" fill="white" style="fill:white;fill-opacity:1;"/>
<path d="M130.821 32.2346C129.638 32.2346 128.625 32.0601 127.782 31.7111C126.948 31.362 126.292 30.8725 125.815 30.2425C125.347 29.6039 125.062 28.8675 124.96 28.0332L124.947 27.9182H128.076L128.101 28.0332C128.22 28.6206 128.501 29.0761 128.944 29.3996C129.395 29.7231 130.025 29.8849 130.834 29.8849C131.353 29.8849 131.796 29.821 132.162 29.6933C132.528 29.5656 132.809 29.3783 133.005 29.1314C133.209 28.8845 133.312 28.5951 133.312 28.263V28.2503C133.312 27.8501 133.175 27.5266 132.903 27.2797C132.631 27.0243 132.141 26.8157 131.434 26.654L129.187 26.1559C128.327 25.9601 127.607 25.6919 127.029 25.3514C126.45 25.0108 126.015 24.5894 125.726 24.0871C125.437 23.5763 125.292 22.9846 125.292 22.312V22.2992C125.292 21.4734 125.517 20.7498 125.969 20.1283C126.42 19.5068 127.054 19.0215 127.871 18.6724C128.689 18.3234 129.638 18.1489 130.719 18.1489C131.843 18.1489 132.805 18.3362 133.605 18.7108C134.406 19.0854 135.023 19.5877 135.457 20.2177C135.9 20.8477 136.138 21.5543 136.172 22.3376L136.185 22.478H133.222L133.209 22.3759C133.141 21.831 132.894 21.384 132.469 21.035C132.043 20.6774 131.46 20.4986 130.719 20.4986C130.251 20.4986 129.842 20.5667 129.493 20.7029C129.153 20.8392 128.889 21.0307 128.701 21.2776C128.523 21.5245 128.433 21.814 128.433 22.146V22.1588C128.433 22.4142 128.497 22.644 128.625 22.8484C128.753 23.0527 128.957 23.2315 129.238 23.3847C129.519 23.5295 129.893 23.6572 130.362 23.7678L132.609 24.2659C134.014 24.5809 135.014 25.0321 135.61 25.6196C136.206 26.1985 136.504 26.9775 136.504 27.9565V27.9693C136.504 28.8207 136.262 29.5699 135.776 30.2169C135.291 30.8554 134.618 31.3535 133.759 31.7111C132.907 32.0601 131.928 32.2346 130.821 32.2346Z" fill="white" style="fill:white;fill-opacity:1;"/>
<path d="M118.127 31.9665V18.6852H120.349V20.9328H120.4C120.622 20.1666 121.005 19.5579 121.55 19.1066C122.094 18.6554 122.741 18.4298 123.491 18.4298C123.686 18.4298 123.861 18.4426 124.014 18.4681C124.176 18.4851 124.299 18.5022 124.385 18.5192V20.6774C124.299 20.6433 124.146 20.6135 123.925 20.588C123.712 20.5625 123.469 20.5497 123.197 20.5497C122.626 20.5497 122.124 20.6774 121.69 20.9328C121.264 21.1882 120.932 21.5586 120.694 22.0438C120.464 22.5206 120.349 23.0953 120.349 23.7678V31.9665H118.127Z" fill="white" style="fill:white;fill-opacity:1;"/>
<path d="M110.707 32.2219C109.438 32.2219 108.344 31.9409 107.425 31.379C106.514 30.8171 105.812 30.0254 105.318 29.0037C104.832 27.9736 104.59 26.7646 104.59 25.3769V25.3641C104.59 23.9935 104.837 22.7888 105.331 21.7501C105.824 20.7029 106.518 19.8899 107.412 19.311C108.306 18.7235 109.357 18.4298 110.566 18.4298C111.775 18.4298 112.814 18.7108 113.682 19.2726C114.559 19.826 115.232 20.605 115.7 21.6096C116.168 22.6142 116.402 23.7806 116.402 25.1087V25.926H105.701V24.1893H115.304L114.18 25.7983V24.9427C114.18 23.9126 114.023 23.0612 113.708 22.3886C113.401 21.7161 112.976 21.218 112.431 20.8945C111.886 20.5625 111.26 20.3964 110.554 20.3964C109.847 20.3964 109.213 20.571 108.651 20.92C108.089 21.2606 107.646 21.7714 107.323 22.4525C106.999 23.1251 106.837 23.9551 106.837 24.9427V25.7983C106.837 26.7348 106.995 27.5351 107.31 28.1992C107.633 28.8632 108.089 29.3741 108.676 29.7316C109.264 30.0807 109.958 30.2552 110.758 30.2552C111.32 30.2552 111.822 30.1701 112.265 29.9998C112.708 29.8295 113.078 29.5954 113.376 29.2974C113.674 28.9995 113.887 28.6589 114.014 28.2758L114.053 28.1609H116.236L116.211 28.2886C116.1 28.8334 115.887 29.3443 115.572 29.821C115.266 30.2978 114.87 30.7192 114.385 31.0853C113.899 31.4429 113.346 31.7238 112.725 31.9282C112.103 32.124 111.431 32.2219 110.707 32.2219Z" fill="white" style="fill:white;fill-opacity:1;"/>
<path d="M91.3848 36.4361V18.6852H93.6068V20.9328H93.6579C93.9389 20.4135 94.2837 19.9708 94.6923 19.6047C95.1095 19.2301 95.5862 18.9406 96.1226 18.7363C96.659 18.532 97.2421 18.4298 97.8721 18.4298C99.0045 18.4298 99.992 18.715 100.835 19.2854C101.686 19.8473 102.346 20.6476 102.814 21.6863C103.283 22.7164 103.517 23.9296 103.517 25.3258V25.3386C103.517 26.7348 103.278 27.948 102.802 28.9782C102.333 30.0083 101.678 30.8086 100.835 31.379C100.001 31.9409 99.0257 32.2219 97.9105 32.2219C97.289 32.2219 96.7058 32.124 96.1609 31.9282C95.616 31.7238 95.1308 31.4386 94.7051 31.0725C94.2879 30.6979 93.9389 30.2552 93.6579 29.7444H93.6068V36.4361H91.3848ZM97.438 30.2552C98.2212 30.2552 98.898 30.0552 99.4685 29.655C100.039 29.2549 100.477 28.6887 100.784 27.9565C101.09 27.2159 101.244 26.3432 101.244 25.3386V25.3258C101.244 24.3042 101.09 23.4273 100.784 22.6951C100.477 21.9544 100.039 21.3883 99.4685 20.9967C98.898 20.5965 98.2212 20.3964 97.438 20.3964C96.6888 20.3964 96.0247 20.6008 95.4458 21.0094C94.8668 21.4181 94.4114 21.9928 94.0793 22.7334C93.7558 23.4656 93.5941 24.3297 93.5941 25.3258V25.3386C93.5941 26.3262 93.7601 27.1903 94.0921 27.931C94.4241 28.6632 94.8754 29.2336 95.4458 29.6422C96.0247 30.0509 96.6888 30.2552 97.438 30.2552Z" fill="white" style="fill:white;fill-opacity:1;"/>
<path d="M80.4655 36.4361C80.2527 36.4361 80.0356 36.4233 79.8142 36.3978C79.6014 36.3808 79.4226 36.3595 79.2779 36.334V34.5205C79.3715 34.5376 79.4779 34.5546 79.5971 34.5716C79.7248 34.5887 79.8568 34.5972 79.993 34.5972C80.6996 34.5972 81.2615 34.4737 81.6787 34.2268C82.1044 33.9799 82.4492 33.4819 82.7131 32.7327L82.9813 31.9792L78.0519 18.6852H80.4272L84.2583 30.2552L83.7858 29.7444H84.4499L83.9774 30.2552L87.8213 18.6852H90.1583L84.9735 32.7965C84.6585 33.6394 84.3052 34.329 83.9135 34.8653C83.5219 35.4017 83.0494 35.7976 82.496 36.053C81.9426 36.3084 81.2658 36.4361 80.4655 36.4361Z" fill="white" style="fill:white;fill-opacity:1;"/>
<path d="M61.7691 31.9665V13.5387H64.0678V21.5075H74.1819V13.5387H76.4806V31.9665H74.1819V23.5763H64.0678V31.9665H61.7691Z" fill="white" style="fill:white;fill-opacity:1;"/>
</svg>
